<mxfile host="app.diagrams.net" modified="2023-12-11T08:16:04.805Z" agent="Mozilla/5.0 (Windows NT 10.0; Win64; x64; rv:120.0) Gecko/20100101 Firefox/120.0" etag="NMNXOB4z5zISwrTnVSg-" version="21.7.4" type="github">
  <diagram id="C5RBs43oDa-KdzZeNtuy" name="Page-1">
    <mxGraphModel dx="1290" dy="511" grid="1" gridSize="10" guides="1" tooltips="1" connect="1" arrows="1" fold="1" page="1" pageScale="1" pageWidth="827" pageHeight="1169" math="0" shadow="0">
      <root>
        <mxCell id="WIyWlLk6GJQsqaUBKTNV-0" />
        <mxCell id="WIyWlLk6GJQsqaUBKTNV-1" parent="WIyWlLk6GJQsqaUBKTNV-0" />
        <mxCell id="0m9i0qNVgHev02p7hBAH-16" style="edgeStyle=orthogonalEdgeStyle;rounded=0;orthogonalLoop=1;jettySize=auto;html=1;exitX=0.5;exitY=1;exitDx=0;exitDy=0;entryX=0.5;entryY=0;entryDx=0;entryDy=0;" edge="1" parent="WIyWlLk6GJQsqaUBKTNV-1" source="0m9i0qNVgHev02p7hBAH-1" target="0m9i0qNVgHev02p7hBAH-6">
          <mxGeometry relative="1" as="geometry" />
        </mxCell>
        <mxCell id="0m9i0qNVgHev02p7hBAH-1" value="CN&lt;br&gt;Postgres" style="rounded=0;whiteSpace=wrap;html=1;" vertex="1" parent="WIyWlLk6GJQsqaUBKTNV-1">
          <mxGeometry x="230" y="30" width="100" height="30" as="geometry" />
        </mxCell>
        <mxCell id="0m9i0qNVgHev02p7hBAH-21" style="edgeStyle=orthogonalEdgeStyle;rounded=0;orthogonalLoop=1;jettySize=auto;html=1;exitX=1;exitY=0.25;exitDx=0;exitDy=0;entryX=0.564;entryY=0.02;entryDx=0;entryDy=0;entryPerimeter=0;" edge="1" parent="WIyWlLk6GJQsqaUBKTNV-1">
          <mxGeometry relative="1" as="geometry">
            <mxPoint x="320" y="196.7" as="sourcePoint" />
            <mxPoint x="422.03999999999996" y="219.99999999999994" as="targetPoint" />
          </mxGeometry>
        </mxCell>
        <mxCell id="0m9i0qNVgHev02p7hBAH-23" style="edgeStyle=orthogonalEdgeStyle;rounded=0;orthogonalLoop=1;jettySize=auto;html=1;exitX=0.5;exitY=1;exitDx=0;exitDy=0;entryX=0.5;entryY=0;entryDx=0;entryDy=0;" edge="1" parent="WIyWlLk6GJQsqaUBKTNV-1" source="0m9i0qNVgHev02p7hBAH-2" target="0m9i0qNVgHev02p7hBAH-3">
          <mxGeometry relative="1" as="geometry" />
        </mxCell>
        <mxCell id="0m9i0qNVgHev02p7hBAH-2" value="Parser" style="rounded=0;whiteSpace=wrap;html=1;" vertex="1" parent="WIyWlLk6GJQsqaUBKTNV-1">
          <mxGeometry x="230" y="190" width="100" height="30" as="geometry" />
        </mxCell>
        <mxCell id="0m9i0qNVgHev02p7hBAH-24" style="edgeStyle=orthogonalEdgeStyle;rounded=0;orthogonalLoop=1;jettySize=auto;html=1;exitX=0.5;exitY=1;exitDx=0;exitDy=0;entryX=0.5;entryY=0;entryDx=0;entryDy=0;" edge="1" parent="WIyWlLk6GJQsqaUBKTNV-1" source="0m9i0qNVgHev02p7hBAH-3" target="0m9i0qNVgHev02p7hBAH-4">
          <mxGeometry relative="1" as="geometry" />
        </mxCell>
        <mxCell id="0m9i0qNVgHev02p7hBAH-3" value="Optimizer" style="rounded=0;whiteSpace=wrap;html=1;" vertex="1" parent="WIyWlLk6GJQsqaUBKTNV-1">
          <mxGeometry x="230" y="240" width="100" height="30" as="geometry" />
        </mxCell>
        <mxCell id="0m9i0qNVgHev02p7hBAH-25" style="edgeStyle=orthogonalEdgeStyle;rounded=0;orthogonalLoop=1;jettySize=auto;html=1;exitX=0.5;exitY=1;exitDx=0;exitDy=0;entryX=0.5;entryY=0;entryDx=0;entryDy=0;" edge="1" parent="WIyWlLk6GJQsqaUBKTNV-1" source="0m9i0qNVgHev02p7hBAH-4" target="0m9i0qNVgHev02p7hBAH-5">
          <mxGeometry relative="1" as="geometry" />
        </mxCell>
        <mxCell id="0m9i0qNVgHev02p7hBAH-4" value="Planner" style="rounded=0;whiteSpace=wrap;html=1;" vertex="1" parent="WIyWlLk6GJQsqaUBKTNV-1">
          <mxGeometry x="230" y="300" width="100" height="30" as="geometry" />
        </mxCell>
        <mxCell id="0m9i0qNVgHev02p7hBAH-26" style="edgeStyle=orthogonalEdgeStyle;rounded=0;orthogonalLoop=1;jettySize=auto;html=1;exitX=0;exitY=0.5;exitDx=0;exitDy=0;entryX=0.5;entryY=0;entryDx=0;entryDy=0;" edge="1" parent="WIyWlLk6GJQsqaUBKTNV-1" source="0m9i0qNVgHev02p7hBAH-5" target="0m9i0qNVgHev02p7hBAH-15">
          <mxGeometry relative="1" as="geometry" />
        </mxCell>
        <mxCell id="0m9i0qNVgHev02p7hBAH-47" style="edgeStyle=orthogonalEdgeStyle;rounded=0;orthogonalLoop=1;jettySize=auto;html=1;exitX=0.5;exitY=1;exitDx=0;exitDy=0;entryX=0.5;entryY=0;entryDx=0;entryDy=0;entryPerimeter=0;" edge="1" parent="WIyWlLk6GJQsqaUBKTNV-1" source="0m9i0qNVgHev02p7hBAH-5" target="0m9i0qNVgHev02p7hBAH-46">
          <mxGeometry relative="1" as="geometry" />
        </mxCell>
        <mxCell id="0m9i0qNVgHev02p7hBAH-5" value="Executor" style="rounded=0;whiteSpace=wrap;html=1;" vertex="1" parent="WIyWlLk6GJQsqaUBKTNV-1">
          <mxGeometry x="230" y="350" width="100" height="30" as="geometry" />
        </mxCell>
        <mxCell id="0m9i0qNVgHev02p7hBAH-17" style="edgeStyle=orthogonalEdgeStyle;rounded=0;orthogonalLoop=1;jettySize=auto;html=1;exitX=0;exitY=0.5;exitDx=0;exitDy=0;entryX=0.5;entryY=0;entryDx=0;entryDy=0;" edge="1" parent="WIyWlLk6GJQsqaUBKTNV-1" source="0m9i0qNVgHev02p7hBAH-6" target="0m9i0qNVgHev02p7hBAH-13">
          <mxGeometry relative="1" as="geometry" />
        </mxCell>
        <mxCell id="0m9i0qNVgHev02p7hBAH-18" style="edgeStyle=orthogonalEdgeStyle;rounded=0;orthogonalLoop=1;jettySize=auto;html=1;exitX=1;exitY=0.5;exitDx=0;exitDy=0;entryX=0.5;entryY=0;entryDx=0;entryDy=0;" edge="1" parent="WIyWlLk6GJQsqaUBKTNV-1" source="0m9i0qNVgHev02p7hBAH-6" target="0m9i0qNVgHev02p7hBAH-7">
          <mxGeometry relative="1" as="geometry" />
        </mxCell>
        <mxCell id="0m9i0qNVgHev02p7hBAH-19" style="edgeStyle=orthogonalEdgeStyle;rounded=0;orthogonalLoop=1;jettySize=auto;html=1;exitX=0.5;exitY=1;exitDx=0;exitDy=0;entryX=0.5;entryY=0;entryDx=0;entryDy=0;" edge="1" parent="WIyWlLk6GJQsqaUBKTNV-1" source="0m9i0qNVgHev02p7hBAH-6" target="0m9i0qNVgHev02p7hBAH-2">
          <mxGeometry relative="1" as="geometry" />
        </mxCell>
        <mxCell id="0m9i0qNVgHev02p7hBAH-6" value="audit_admin?" style="rhombus;whiteSpace=wrap;html=1;" vertex="1" parent="WIyWlLk6GJQsqaUBKTNV-1">
          <mxGeometry x="225" y="80" width="110" height="40" as="geometry" />
        </mxCell>
        <mxCell id="0m9i0qNVgHev02p7hBAH-20" style="edgeStyle=orthogonalEdgeStyle;rounded=0;orthogonalLoop=1;jettySize=auto;html=1;exitX=0;exitY=0.5;exitDx=0;exitDy=0;" edge="1" parent="WIyWlLk6GJQsqaUBKTNV-1" source="0m9i0qNVgHev02p7hBAH-7">
          <mxGeometry relative="1" as="geometry">
            <mxPoint x="280" y="140" as="targetPoint" />
          </mxGeometry>
        </mxCell>
        <mxCell id="0m9i0qNVgHev02p7hBAH-55" style="edgeStyle=orthogonalEdgeStyle;rounded=0;orthogonalLoop=1;jettySize=auto;html=1;exitX=1;exitY=0.5;exitDx=0;exitDy=0;entryX=1;entryY=0.5;entryDx=0;entryDy=0;" edge="1" parent="WIyWlLk6GJQsqaUBKTNV-1" source="0m9i0qNVgHev02p7hBAH-7" target="0m9i0qNVgHev02p7hBAH-28">
          <mxGeometry relative="1" as="geometry">
            <Array as="points">
              <mxPoint x="510" y="140" />
              <mxPoint x="510" y="475" />
            </Array>
          </mxGeometry>
        </mxCell>
        <mxCell id="0m9i0qNVgHev02p7hBAH-7" value="enable_audit" style="rhombus;whiteSpace=wrap;html=1;" vertex="1" parent="WIyWlLk6GJQsqaUBKTNV-1">
          <mxGeometry x="350" y="120" width="110" height="40" as="geometry" />
        </mxCell>
        <mxCell id="0m9i0qNVgHev02p7hBAH-22" value="" style="edgeStyle=orthogonalEdgeStyle;rounded=0;orthogonalLoop=1;jettySize=auto;html=1;" edge="1" parent="WIyWlLk6GJQsqaUBKTNV-1" source="0m9i0qNVgHev02p7hBAH-8" target="0m9i0qNVgHev02p7hBAH-9">
          <mxGeometry relative="1" as="geometry" />
        </mxCell>
        <mxCell id="0m9i0qNVgHev02p7hBAH-8" value="update audit catalog" style="rounded=0;whiteSpace=wrap;html=1;" vertex="1" parent="WIyWlLk6GJQsqaUBKTNV-1">
          <mxGeometry x="370" y="220" width="110" height="40" as="geometry" />
        </mxCell>
        <mxCell id="0m9i0qNVgHev02p7hBAH-33" style="edgeStyle=orthogonalEdgeStyle;rounded=0;orthogonalLoop=1;jettySize=auto;html=1;exitX=0.5;exitY=1;exitDx=0;exitDy=0;entryX=1;entryY=0.5;entryDx=0;entryDy=0;" edge="1" parent="WIyWlLk6GJQsqaUBKTNV-1" source="0m9i0qNVgHev02p7hBAH-9" target="0m9i0qNVgHev02p7hBAH-28">
          <mxGeometry relative="1" as="geometry" />
        </mxCell>
        <mxCell id="0m9i0qNVgHev02p7hBAH-9" value="&lt;div&gt;hit audit policy &amp;amp;&amp;nbsp;&lt;/div&gt;&lt;div&gt;allocate memory&lt;/div&gt;" style="rounded=0;whiteSpace=wrap;html=1;" vertex="1" parent="WIyWlLk6GJQsqaUBKTNV-1">
          <mxGeometry x="370" y="320" width="110" height="40" as="geometry" />
        </mxCell>
        <mxCell id="0m9i0qNVgHev02p7hBAH-40" style="edgeStyle=orthogonalEdgeStyle;rounded=0;orthogonalLoop=1;jettySize=auto;html=1;exitX=0.5;exitY=1;exitDx=0;exitDy=0;entryX=0.5;entryY=0;entryDx=0;entryDy=0;" edge="1" parent="WIyWlLk6GJQsqaUBKTNV-1" source="0m9i0qNVgHev02p7hBAH-12" target="0m9i0qNVgHev02p7hBAH-37">
          <mxGeometry relative="1" as="geometry" />
        </mxCell>
        <mxCell id="0m9i0qNVgHev02p7hBAH-12" value="audit thread" style="rounded=0;whiteSpace=wrap;html=1;" vertex="1" parent="WIyWlLk6GJQsqaUBKTNV-1">
          <mxGeometry x="320" y="530" width="130" height="30" as="geometry" />
        </mxCell>
        <mxCell id="0m9i0qNVgHev02p7hBAH-38" style="edgeStyle=orthogonalEdgeStyle;rounded=0;orthogonalLoop=1;jettySize=auto;html=1;exitX=0.5;exitY=1;exitDx=0;exitDy=0;" edge="1" parent="WIyWlLk6GJQsqaUBKTNV-1" source="0m9i0qNVgHev02p7hBAH-13">
          <mxGeometry relative="1" as="geometry">
            <mxPoint x="140" y="330" as="targetPoint" />
          </mxGeometry>
        </mxCell>
        <mxCell id="0m9i0qNVgHev02p7hBAH-48" style="edgeStyle=orthogonalEdgeStyle;rounded=0;orthogonalLoop=1;jettySize=auto;html=1;exitX=1;exitY=0.5;exitDx=0;exitDy=0;" edge="1" parent="WIyWlLk6GJQsqaUBKTNV-1" source="0m9i0qNVgHev02p7hBAH-13">
          <mxGeometry relative="1" as="geometry">
            <mxPoint x="280" y="140" as="targetPoint" />
          </mxGeometry>
        </mxCell>
        <mxCell id="0m9i0qNVgHev02p7hBAH-13" value="enable_fga" style="rhombus;whiteSpace=wrap;html=1;" vertex="1" parent="WIyWlLk6GJQsqaUBKTNV-1">
          <mxGeometry x="90" y="120" width="100" height="40" as="geometry" />
        </mxCell>
        <mxCell id="0m9i0qNVgHev02p7hBAH-32" style="edgeStyle=orthogonalEdgeStyle;rounded=0;orthogonalLoop=1;jettySize=auto;html=1;exitX=0.5;exitY=1;exitDx=0;exitDy=0;entryX=0;entryY=0.5;entryDx=0;entryDy=0;" edge="1" parent="WIyWlLk6GJQsqaUBKTNV-1" source="0m9i0qNVgHev02p7hBAH-14" target="0m9i0qNVgHev02p7hBAH-28">
          <mxGeometry relative="1" as="geometry" />
        </mxCell>
        <mxCell id="0m9i0qNVgHev02p7hBAH-14" value="update fga catalog" style="rounded=0;whiteSpace=wrap;html=1;" vertex="1" parent="WIyWlLk6GJQsqaUBKTNV-1">
          <mxGeometry x="70" y="420" width="110" height="30" as="geometry" />
        </mxCell>
        <mxCell id="0m9i0qNVgHev02p7hBAH-30" style="edgeStyle=orthogonalEdgeStyle;rounded=0;orthogonalLoop=1;jettySize=auto;html=1;exitX=0.5;exitY=1;exitDx=0;exitDy=0;entryX=0.5;entryY=0;entryDx=0;entryDy=0;" edge="1" parent="WIyWlLk6GJQsqaUBKTNV-1" source="0m9i0qNVgHev02p7hBAH-15" target="0m9i0qNVgHev02p7hBAH-14">
          <mxGeometry relative="1" as="geometry" />
        </mxCell>
        <mxCell id="0m9i0qNVgHev02p7hBAH-15" value="&lt;div&gt;hit fga policy &amp;amp;&amp;nbsp;&lt;/div&gt;&lt;div&gt;allocate memory&lt;/div&gt;" style="rounded=0;whiteSpace=wrap;html=1;" vertex="1" parent="WIyWlLk6GJQsqaUBKTNV-1">
          <mxGeometry x="70" y="350" width="110" height="50" as="geometry" />
        </mxCell>
        <mxCell id="0m9i0qNVgHev02p7hBAH-34" style="edgeStyle=orthogonalEdgeStyle;rounded=0;orthogonalLoop=1;jettySize=auto;html=1;exitX=0.25;exitY=1;exitDx=0;exitDy=0;" edge="1" parent="WIyWlLk6GJQsqaUBKTNV-1" source="0m9i0qNVgHev02p7hBAH-28" target="0m9i0qNVgHev02p7hBAH-29">
          <mxGeometry relative="1" as="geometry" />
        </mxCell>
        <mxCell id="0m9i0qNVgHev02p7hBAH-35" style="edgeStyle=orthogonalEdgeStyle;rounded=0;orthogonalLoop=1;jettySize=auto;html=1;exitX=0.75;exitY=1;exitDx=0;exitDy=0;" edge="1" parent="WIyWlLk6GJQsqaUBKTNV-1" source="0m9i0qNVgHev02p7hBAH-28" target="0m9i0qNVgHev02p7hBAH-12">
          <mxGeometry relative="1" as="geometry" />
        </mxCell>
        <mxCell id="0m9i0qNVgHev02p7hBAH-28" value="audit logger process" style="rounded=0;whiteSpace=wrap;html=1;" vertex="1" parent="WIyWlLk6GJQsqaUBKTNV-1">
          <mxGeometry x="230" y="460" width="130" height="30" as="geometry" />
        </mxCell>
        <mxCell id="0m9i0qNVgHev02p7hBAH-39" style="edgeStyle=orthogonalEdgeStyle;rounded=0;orthogonalLoop=1;jettySize=auto;html=1;exitX=0.5;exitY=1;exitDx=0;exitDy=0;entryX=0.5;entryY=0;entryDx=0;entryDy=0;" edge="1" parent="WIyWlLk6GJQsqaUBKTNV-1" source="0m9i0qNVgHev02p7hBAH-29" target="0m9i0qNVgHev02p7hBAH-36">
          <mxGeometry relative="1" as="geometry" />
        </mxCell>
        <mxCell id="0m9i0qNVgHev02p7hBAH-29" value="fga thread" style="rounded=0;whiteSpace=wrap;html=1;" vertex="1" parent="WIyWlLk6GJQsqaUBKTNV-1">
          <mxGeometry x="135" y="530" width="130" height="30" as="geometry" />
        </mxCell>
        <mxCell id="0m9i0qNVgHev02p7hBAH-36" value="audit.fga" style="shape=document;whiteSpace=wrap;html=1;boundedLbl=1;" vertex="1" parent="WIyWlLk6GJQsqaUBKTNV-1">
          <mxGeometry x="135" y="585" width="125" height="45" as="geometry" />
        </mxCell>
        <mxCell id="0m9i0qNVgHev02p7hBAH-37" value="audit.log" style="shape=document;whiteSpace=wrap;html=1;boundedLbl=1;" vertex="1" parent="WIyWlLk6GJQsqaUBKTNV-1">
          <mxGeometry x="320" y="585" width="130" height="40" as="geometry" />
        </mxCell>
        <mxCell id="0m9i0qNVgHev02p7hBAH-41" value="" style="endArrow=classic;html=1;rounded=0;entryX=1;entryY=0;entryDx=0;entryDy=0;" edge="1" parent="WIyWlLk6GJQsqaUBKTNV-1" target="0m9i0qNVgHev02p7hBAH-1">
          <mxGeometry width="50" height="50" relative="1" as="geometry">
            <mxPoint x="380" y="20" as="sourcePoint" />
            <mxPoint x="440" y="170" as="targetPoint" />
          </mxGeometry>
        </mxCell>
        <mxCell id="0m9i0qNVgHev02p7hBAH-42" value="DDL" style="text;html=1;align=center;verticalAlign=middle;resizable=0;points=[];autosize=1;strokeColor=none;fillColor=none;" vertex="1" parent="WIyWlLk6GJQsqaUBKTNV-1">
          <mxGeometry x="380" y="10" width="50" height="30" as="geometry" />
        </mxCell>
        <mxCell id="0m9i0qNVgHev02p7hBAH-43" value="DML" style="text;html=1;align=center;verticalAlign=middle;resizable=0;points=[];autosize=1;strokeColor=none;fillColor=none;" vertex="1" parent="WIyWlLk6GJQsqaUBKTNV-1">
          <mxGeometry x="135" y="10" width="50" height="30" as="geometry" />
        </mxCell>
        <mxCell id="0m9i0qNVgHev02p7hBAH-44" value="" style="endArrow=classic;html=1;rounded=0;entryX=1;entryY=0;entryDx=0;entryDy=0;exitX=1.06;exitY=0.133;exitDx=0;exitDy=0;exitPerimeter=0;" edge="1" parent="WIyWlLk6GJQsqaUBKTNV-1" source="0m9i0qNVgHev02p7hBAH-43">
          <mxGeometry width="50" height="50" relative="1" as="geometry">
            <mxPoint x="90" y="-10" as="sourcePoint" />
            <mxPoint x="230" y="30" as="targetPoint" />
            <Array as="points" />
          </mxGeometry>
        </mxCell>
        <mxCell id="0m9i0qNVgHev02p7hBAH-46" value="storage" style="strokeWidth=2;html=1;shape=mxgraph.flowchart.database;whiteSpace=wrap;" vertex="1" parent="WIyWlLk6GJQsqaUBKTNV-1">
          <mxGeometry x="250" y="400" width="60" height="50" as="geometry" />
        </mxCell>
        <mxCell id="0m9i0qNVgHev02p7hBAH-49" value="N" style="text;html=1;align=center;verticalAlign=middle;resizable=0;points=[];autosize=1;strokeColor=none;fillColor=none;" vertex="1" parent="WIyWlLk6GJQsqaUBKTNV-1">
          <mxGeometry x="275" y="108" width="30" height="30" as="geometry" />
        </mxCell>
        <mxCell id="0m9i0qNVgHev02p7hBAH-50" value="Y" style="text;html=1;align=center;verticalAlign=middle;resizable=0;points=[];autosize=1;strokeColor=none;fillColor=none;" vertex="1" parent="WIyWlLk6GJQsqaUBKTNV-1">
          <mxGeometry x="325" y="78" width="30" height="30" as="geometry" />
        </mxCell>
        <mxCell id="0m9i0qNVgHev02p7hBAH-51" value="Y" style="text;html=1;align=center;verticalAlign=middle;resizable=0;points=[];autosize=1;strokeColor=none;fillColor=none;" vertex="1" parent="WIyWlLk6GJQsqaUBKTNV-1">
          <mxGeometry x="205" y="68" width="30" height="30" as="geometry" />
        </mxCell>
        <mxCell id="0m9i0qNVgHev02p7hBAH-52" value="Y" style="text;html=1;align=center;verticalAlign=middle;resizable=0;points=[];autosize=1;strokeColor=none;fillColor=none;" vertex="1" parent="WIyWlLk6GJQsqaUBKTNV-1">
          <mxGeometry x="135" y="148" width="30" height="30" as="geometry" />
        </mxCell>
        <mxCell id="0m9i0qNVgHev02p7hBAH-53" value="N" style="text;html=1;align=center;verticalAlign=middle;resizable=0;points=[];autosize=1;strokeColor=none;fillColor=none;" vertex="1" parent="WIyWlLk6GJQsqaUBKTNV-1">
          <mxGeometry x="175" y="118" width="30" height="30" as="geometry" />
        </mxCell>
        <mxCell id="0m9i0qNVgHev02p7hBAH-54" value="Y" style="text;html=1;align=center;verticalAlign=middle;resizable=0;points=[];autosize=1;strokeColor=none;fillColor=none;" vertex="1" parent="WIyWlLk6GJQsqaUBKTNV-1">
          <mxGeometry x="335" y="118" width="30" height="30" as="geometry" />
        </mxCell>
        <mxCell id="0m9i0qNVgHev02p7hBAH-56" value="N" style="text;html=1;align=center;verticalAlign=middle;resizable=0;points=[];autosize=1;strokeColor=none;fillColor=none;" vertex="1" parent="WIyWlLk6GJQsqaUBKTNV-1">
          <mxGeometry x="450" y="120" width="30" height="30" as="geometry" />
        </mxCell>
      </root>
    </mxGraphModel>
  </diagram>
</mxfile>
